<svg width="48" height="48" viewBox="0 0 48 48" fill="none" xmlns="http://www.w3.org/2000/svg">
<g clip-path="url(#clip0_2_11)">
<path d="M47.5 24C47.5 11.0213 36.9787 0.5 24 0.5C11.0213 0.5 0.5 11.0213 0.5 24C0.5 36.9787 11.0213 47.5 24 47.5C36.9787 47.5 47.5 36.9787 47.5 24Z" stroke="white" stroke-opacity="0.295743"/>
<path fill-rule="evenodd" clip-rule="evenodd" d="M15.289 13.039C8.08801 16.794 19.523 39.021 26.89 35.654C27.011 35.599 28.992 34.625 29 34.621L25.479 27.826C25.472 27.83 23.506 28.796 23.415 28.837C21.176 29.923 16.617 21.017 18.806 19.843L20.888 18.817L17.396 12L15.289 13.039ZM28.269 23.115L25.352 22.245L26.221 19.329C26.967 19.551 27.63 20.059 28.029 20.798C28.429 21.536 28.492 22.368 28.269 23.115ZM27.156 16.187C28.707 16.649 30.082 17.703 30.912 19.238C31.743 20.774 31.872 22.501 31.41 24.051L29.615 23.516C29.94 22.425 29.848 21.21 29.263 20.129C28.68 19.048 27.712 18.307 26.62 17.983L27.156 16.187ZM33.835 17.656C32.569 15.312 30.471 13.705 28.106 13L27.557 14.841C29.452 15.405 31.132 16.693 32.148 18.57C33.162 20.446 33.32 22.557 32.756 24.452L34.596 25C35.301 22.634 35.104 19.999 33.835 17.656Z" fill="white"/>
</g>
<defs>
<clipPath id="clip0_2_11">
<rect width="48" height="48" fill="white"/>
</clipPath>
</defs>
</svg>
